HIERARCHY
ROOT Hips
{
 OFFSET 0.000000 0.000000 0.000000
 CHANNELS 6 Xposition Yposition Zposition Yrotation Xrotation Zrotation
 JOINT Chest
 {
  OFFSET 0.000000 9.585900 0.002600
  CHANNELS 3 Yrotation Xrotation Zrotation
  JOINT Chest2
  {
   OFFSET 0.000000 9.601200 -0.005300
   CHANNELS 3 Yrotation Xrotation Zrotation
   JOINT Chest3
   {
    OFFSET 0.000000 9.561800 0.000000
    CHANNELS 3 Yrotation Xrotation Zrotation
    JOINT Chest4
    {
     OFFSET 0.000000 9.552100 0.000000
     CHANNELS 3 Yrotation Xrotation Zrotation
     JOINT Neck
     {
      OFFSET 0.000000 14.453000 0.000000
      CHANNELS 3 Yrotation Xrotation Zrotation
      JOINT Head
      {
       OFFSET 0.000000 8.936500 -0.011300
       CHANNELS 3 Yrotation Xrotation Zrotation
       End Site
       {
        OFFSET 0.000000 17.073600 -0.006000
       }
      }
     }
     JOINT RightCollar
     {
      OFFSET -2.921100 9.558500 0.000000
      CHANNELS 3 Yrotation Xrotation Zrotation
      JOINT RightShoulder
      {
       OFFSET -13.519700 0.000000 0.000000
       CHANNELS 3 Yrotation Xrotation Zrotation
       JOINT RightElbow
       {
        OFFSET 0.000000 -29.696600 0.000000
        CHANNELS 3 Yrotation Xrotation Zrotation
        JOINT RightWrist
        {
         OFFSET 0.000000 -24.004700 0.000000
         CHANNELS 3 Yrotation Xrotation Zrotation
         End Site
         {
          OFFSET 0.000000 -17.728500 0.000000
         }
        }
       }
      }
     }
     JOINT LeftCollar
     {
      OFFSET 2.921100 9.558500 0.000000
      CHANNELS 3 Yrotation Xrotation Zrotation
      JOINT LeftShoulder
      {
       OFFSET 13.519700 0.000000 0.000000
       CHANNELS 3 Yrotation Xrotation Zrotation
       JOINT LeftElbow
       {
        OFFSET 0.000000 -29.696600 0.000000
        CHANNELS 3 Yrotation Xrotation Zrotation
        JOINT LeftWrist
        {
         OFFSET 0.000000 -24.004700 0.000000
         CHANNELS 3 Yrotation Xrotation Zrotation
         End Site
         {
          OFFSET 0.000000 -17.728500 0.000000
         }
        }
       }
      }
     }
    }
   }
  }
 }
 JOINT RightHip
 {
  OFFSET -7.771700 -0.012900 -0.001300
  CHANNELS 3 Yrotation Xrotation Zrotation
  JOINT RightKnee
  {
   OFFSET 0.000000 -40.869800 0.001200
   CHANNELS 3 Yrotation Xrotation Zrotation
   JOINT RightAnkle
   {
    OFFSET 0.000000 -39.717900 0.002100
    CHANNELS 3 Yrotation Xrotation Zrotation
    JOINT RightToe
    {
     OFFSET 0.000000 -4.965400 11.033500
     CHANNELS 3 Yrotation Xrotation Zrotation
     End Site
     {
      OFFSET 0.000000 -1.423100 5.872300
     }
    }
   }
  }
 }
 JOINT LeftHip
 {
  OFFSET 7.771700 -0.012900 -0.001300
  CHANNELS 3 Yrotation Xrotation Zrotation
  JOINT LeftKnee
  {
   OFFSET 0.000000 -40.869800 0.001200
   CHANNELS 3 Yrotation Xrotation Zrotation
   JOINT LeftAnkle
   {
    OFFSET 0.000000 -39.717900 0.002100
    CHANNELS 3 Yrotation Xrotation Zrotation
    JOINT LeftToe
    {
     OFFSET 0.000000 -4.965400 11.033500
     CHANNELS 3 Yrotation Xrotation Zrotation
     End Site
     {
      OFFSET 0.000000 -1.423100 5.872300
     }
    }
   }
  }
 }
}
MOTION
Frames: 9
Frame Time: 0.008333
0.000000 85.388000 0.000000 0.000000 -5.767877 0.000000 0.000000 11.653817 0.000000 0.000000 -5.885947 0.000000 0.000000 -0.000000 0.000000 0.000000 -0.000000 0.000000 0.000000 12.528835 0.000000 0.000000 0.711642 0.000000 0.000000 -0.000000 0.000000 0.000000 0.000000 -90.000000 0.000000 -2.309062 0.000000 0.000000 2.309062 0.000000 0.000000 -0.000000 0.000000 0.000000 -0.000000 90.000000 0.000000 -2.309062 0.000000 0.000000 2.309062 0.000000 0.000000 8.520406 0.000000 0.000000 1.905762 0.000000 -0.000000 -4.658285 0.000000 0.000000 -0.000000 0.000000 0.000000 8.520406 0.000000 0.000000 1.905762 0.000000 -0.000000 -4.658285 0.000000 0.000000 -0.000000 0.000000
-7.769113 44.323795 26.600955 175.149509 -23.012093 -1.528014 -2.747026 17.190991 3.480745 -0.350958 1.826104 0.372751 -0.577088 3.036966 0.613849 -2.555624 14.892569 2.757546 -3.801902 12.166834 -7.523441 -2.383395 -12.803808 -7.348238 17.201673 -1.403551 -10.784320 -13.453505 -36.544193 -29.053429 -127.380754 -68.184991 140.599281 -1.106947 4.036775 38.894558 -6.881519 -3.320026 -5.185322 10.152929 8.978782 8.632342 -128.346972 -77.450897 104.635624 6.133931 6.520746 21.285831 -3.112204 -67.999784 10.392874 -156.877118 70.993144 -153.848812 -12.033707 -26.115686 8.606662 0.133190 0.328647 -0.237647 2.813737 -52.376845 -0.171018 175.988267 57.321819 175.391330 -1.312060 -41.302995 1.255145 0.122504 -0.171949 -0.041939
-7.770376 44.320116 26.592957 174.645462 -23.147393 -1.461310 -2.806981 17.146836 3.456739 -0.357571 1.829279 0.376806 -0.587882 3.041937 0.620415 -2.602528 14.896752 2.780702 -3.851856 12.312478 -7.712528 -2.396320 -12.643052 -7.550643 18.328788 -1.680472 -10.741848 -9.466025 -38.148367 -31.443988 -119.201439 -69.763790 130.555188 -3.044213 4.153189 33.815036 -6.781313 -3.230896 -5.355151 10.328125 9.143730 8.507534 -128.367652 -77.658284 104.700438 6.354008 6.482175 21.665308 -2.686327 -67.794502 10.269267 -157.135814 71.273883 -153.964696 -11.969672 -26.068878 8.603587 0.078828 0.341087 -0.286679 2.962345 -52.193073 -0.019544 175.899092 57.254850 175.362917 -1.190588 -41.369735 1.144313 0.111709 -0.495134 -0.033714
-7.763923 44.315968 26.579360 174.103128 -23.328207 -1.427776 -2.782424 17.146909 3.479524 -0.356348 1.834576 0.381633 -0.585693 3.050420 0.628360 -2.583136 14.913745 2.816593 -3.970906 12.464009 -7.913324 -2.483183 -12.474689 -7.751754 19.348785 -1.977414 -10.715511 -4.794271 -39.286830 -34.313228 -113.179846 -72.222588 121.491370 -4.883149 3.514096 25.638169 -6.804706 -3.194591 -5.475345 10.413048 9.307719 8.388360 -128.264972 -77.958333 104.693901 6.607799 6.444569 22.049873 -2.367208 -67.555316 10.303725 -157.352189 71.553385 -154.047105 -11.889386 -25.950553 8.525425 0.041868 0.300188 -0.263967 3.086153 -51.955873 0.198435 175.777514 57.184640 175.322247 -1.094991 -41.463610 1.053925 0.105842 -1.357212 0.075710
-7.754785 44.309497 26.564424 173.531149 -23.517380 -1.384309 -2.684941 17.152810 3.510360 -0.347765 1.841786 0.386601 -0.571231 3.061927 0.636630 -2.502232 14.942509 2.859827 -4.136103 12.611722 -8.128850 -2.618261 -12.309047 -7.960579 20.280378 -2.264901 -10.741993 0.243764 -39.988603 -37.412779 -107.225721 -76.125082 111.669774 -6.149474 1.936170 14.798102 -6.930097 -3.205591 -5.561137 10.390547 9.447359 8.295260 -128.023361 -78.368407 104.600388 6.875128 6.413312 22.403785 -2.044587 -67.318008 10.374713 -157.505180 71.824893 -154.067257 -11.823078 -25.795212 8.501776 0.055311 0.245903 -0.288752 3.246600 -51.700430 0.395921 175.603778 57.114250 175.258755 -1.010693 -41.581118 0.954575 0.099996 -2.343367 0.203325
-7.739989 44.302253 26.547572 172.952377 -23.714734 -1.335935 -2.531379 17.171288 3.549849 -0.332979 1.850536 0.390969 -0.546506 3.075856 0.644015 -2.370892 14.980743 2.903599 -4.315669 12.752994 -8.346443 -2.769390 -12.149517 -8.169582 21.149589 -2.556285 -10.840176 5.249815 -40.406828 -40.501230 -93.262772 -80.761558 93.735106 -6.465520 -0.274172 2.419691 -7.125867 -3.269629 -5.626771 10.266626 9.551211 8.239385 -127.653529 -78.884238 104.426274 7.130971 6.399682 22.678650 -1.767828 -67.083417 10.516305 -157.596094 72.079065 -154.034818 -11.755984 -25.588642 8.445172 0.076434 0.157688 -0.291395 3.436786 -51.425197 0.561476 175.367972 57.048038 175.169598 -0.924707 -41.725826 0.819028 0.098050 -2.808737 0.244725
-7.718181 44.295684 26.529994 172.385006 -23.909036 -1.277381 -2.331637 17.201525 3.586553 -0.312564 1.859873 0.394059 -0.512481 3.090872 0.649391 -2.195185 15.024768 2.942416 -4.490732 12.896593 -8.536883 -2.921839 -11.987610 -8.348549 21.925977 -2.906142 -11.007257 9.785046 -40.846834 -43.350326 -52.715959 -83.199168 49.817759 -6.566188 -2.589523 -9.655287 -7.367045 -3.391455 -5.667484 10.068925 9.613360 8.213132 -127.169280 -79.476503 104.155353 7.357245 6.414768 22.835026 -1.552549 -66.859410 10.725489 -157.658990 72.314043 -153.989056 -11.706995 -25.358498 8.344422 0.098984 0.056177 -0.262706 3.674214 -51.141893 0.664195 175.066754 56.991266 175.059824 -0.835750 -41.893066 0.654086 0.101649 -2.548685 0.172831
-7.688814 44.291769 26.512697 171.843724 -24.090968 -1.199639 -2.086961 17.242871 3.608180 -0.286266 1.869919 0.395310 -0.468677 3.107140 0.651800 -1.973363 15.074758 2.971864 -4.661097 13.047165 -8.667190 -3.082295 -11.819510 -8.458812 22.548295 -3.397471 -11.247322 13.548218 -41.655700 -45.704691 -17.419363 -79.946218 12.120971 -7.073125 -5.130694 -19.118463 -7.644968 -3.565518 -5.663306 9.826244 9.622219 8.199325 -126.603495 -80.107610 103.779623 7.546214 6.458483 22.860116 -1.372771 -66.651360 10.954911 -157.721434 72.527504 -153.956762 -11.672189 -25.137918 8.230878 0.123908 -0.036693 -0.233375 3.972134 -50.860295 0.675327 174.729046 56.952135 174.955645 -0.733416 -42.071955 0.483930 0.103092 -2.017469 0.053355
-7.652454 44.292829 26.496051 171.345063 -24.255147 -1.091863 -1.779972 17.313964 3.619720 -0.272067 1.867196 0.383042 -0.420779 3.131847 0.663882 -1.704243 15.130215 2.975936 -4.836591 13.187913 -8.713722 -3.266822 -11.664393 -8.471003 23.006679 -4.066414 -11.583009 16.664214 -42.836118 -47.396272 -11.015088 -74.670849 3.988647 -7.501597 -8.175865 -23.774265 -7.956703 -3.788493 -5.598580 9.557425 9.568471 8.186339 -126.044965 -80.735672 103.364072 7.697303 6.513508 22.762145 -1.204352 -66.460307 11.155150 -157.777705 72.714745 -153.937447 -11.638579 -24.954816 8.113590 0.143524 -0.106458 -0.209670 4.318879 -50.583028 0.582394 174.382233 56.939146 174.865786 -0.607319 -42.256703 0.318205 0.097731 -1.574735 -0.057918
